<?xml version="1.0" encoding="utf-8"?>
<!-- Generator: Adobe Illustrator 24.3.0, SVG Export Plug-In . SVG Version: 6.00 Build 0)  -->
<svg version="1.1" id="Layer_1" xmlns="http://www.w3.org/2000/svg" xmlns:xlink="http://www.w3.org/1999/xlink" x="0px" y="0px"
	 viewBox="0 0 512 512" style="enable-background:new 0 0 512 512;" xml:space="preserve">
<style type="text/css">
	.st0{fill:#FFFFFF;}
</style>
<rect id="XMLID_117_" width="512" height="512"/>
<g id="XMLID_1_">
	<path id="XMLID_5_" class="st0" d="M406.84,360.35c-5.63,13.11-12.39,25.09-20.07,36.15c-10.55,15.05-19.25,25.5-25.91,31.33
		c-10.34,9.52-21.4,14.34-33.28,14.64c-8.5,0-18.74-2.46-30.72-7.37c-11.98-4.92-23.04-7.27-33.08-7.27c-10.55,0-21.91,2.46-34,7.27
		c-12.19,4.92-21.91,7.48-29.39,7.68c-11.37,0.51-22.73-4.51-34-15.05c-7.27-6.35-16.28-17.1-27.03-32.36
		c-11.57-16.38-21.2-35.23-28.67-56.83c-7.99-23.35-11.98-45.88-11.98-67.79c0-25.09,5.43-46.69,16.28-64.72
		c8.5-14.54,19.87-26.01,34-34.41c14.23-8.4,29.49-12.7,45.98-13c9.01,0,20.89,2.76,35.64,8.29c14.64,5.53,24.06,8.29,28.26,8.29
		c3.07,0,13.52-3.28,31.33-9.83c16.79-6.04,30.92-8.5,42.6-7.58c31.44,2.56,55.09,14.95,70.76,37.27
		c-28.16,17-41.98,40.86-41.78,71.48c0.2,23.86,8.91,43.72,25.91,59.49c7.68,7.27,16.28,13,25.91,17
		C411.34,349.08,409.19,354.82,406.84,360.35L406.84,360.35z M334.75,76.6c0,18.74-6.86,36.15-20.48,52.33
		c-16.38,19.25-36.25,30.31-57.86,28.57c-0.31-2.25-0.41-4.61-0.41-7.07c0-17.92,7.78-37.17,21.71-52.84
		c6.96-7.99,15.77-14.54,26.42-19.87c10.65-5.22,20.79-8.09,30.21-8.6C334.54,71.58,334.75,74.14,334.75,76.6L334.75,76.6z"/>
</g>
</svg>
